<?xml version="1.0" standalone="no"?>
<!DOCTYPE svg PUBLIC "-//W3C//DTD SVG 20010904//EN"
 "http://www.w3.org/TR/2001/REC-SVG-20010904/DTD/svg10.dtd">
<svg version="1.0" xmlns="http://www.w3.org/2000/svg"
 width="1440.000000pt" height="900.000000pt" viewBox="0 0 1440.000000 900.000000"
 preserveAspectRatio="xMidYMid meet">

<g transform="translate(0.000000,900.000000) scale(0.100000,-0.100000)"
fill="#000000" stroke="none">
<path d="M7649 718 c-91 -32 -174 -84 -225 -142 -24 -27 -71 -101 -106 -164
-117 -212 -142 -240 -221 -249 -81 -9 -115 20 -214 179 -127 206 -197 259
-343 262 -96 1 -165 -22 -226 -77 -25 -23 -105 -125 -177 -227 -112 -157 -139
-188 -177 -207 -53 -28 -101 -29 -155 -4 -65 29 -90 68 -116 178 -41 168 -106
233 -235 233 -34 0 -74 -4 -87 -9 -49 -19 -99 -76 -167 -191 -102 -173 -164
-220 -291 -220 -66 0 -141 33 -185 81 -17 19 -54 73 -83 121 -91 153 -180 208
-334 208 -140 -1 -233 -52 -311 -169 -75 -115 -133 -151 -238 -151 -116 1
-184 52 -253 193 -50 103 -88 130 -178 124 -96 -6 -141 -53 -171 -182 -15 -63
-26 -86 -55 -117 -44 -46 -100 -62 -155 -43 -55 19 -73 40 -123 140 -25 50
-59 105 -77 123 -93 99 -254 108 -360 20 -29 -23 -52 -60 -86 -133 -68 -144
-119 -187 -223 -187 -51 1 -122 29 -151 61 -9 9 -53 86 -99 171 -101 187 -126
212 -222 218 -51 3 -73 0 -110 -18 -60 -29 -82 -68 -144 -267 -63 -199 -93
-238 -196 -264 -16 -4 2957 -7 6608 -8 l6637 -1 0 29 c0 28 -13 37 -205 152
-113 67 -205 126 -205 131 0 5 -20 31 -45 57 -129 138 -365 142 -492 8 -22
-23 -58 -74 -81 -113 -71 -122 -168 -191 -302 -216 -72 -14 -154 -1 -233 35
-29 13 -162 109 -298 214 -135 104 -268 199 -295 211 -142 60 -296 56 -438
-14 -108 -53 -184 -140 -241 -277 -51 -123 -141 -196 -252 -205 -152 -13 -209
25 -369 241 -143 194 -179 231 -264 271 -59 28 -74 31 -160 31 -191 -1 -267
-58 -415 -311 -54 -90 -109 -173 -123 -184 -42 -33 -96 -45 -142 -31 -69 20
-95 54 -154 198 -67 163 -99 210 -175 261 -74 49 -141 66 -235 59 -99 -7 -152
-33 -250 -125 -97 -92 -175 -135 -276 -153 -126 -22 -267 15 -366 97 -24 19
-82 82 -130 140 -142 171 -243 225 -429 231 -95 3 -119 0 -176 -19z"/>
<path d="M520 457 c-91 -26 -142 -72 -189 -170 -28 -58 -85 -106 -228 -190
-72 -42 -103 -66 -103 -79 0 -17 22 -18 553 -17 303 1 539 4 522 8 -46 12 -91
38 -114 67 -11 14 -50 84 -85 154 -88 172 -143 221 -262 234 -27 3 -69 0 -94
-7z"/>
</g>
</svg>
