<?xml version="1.0" encoding="UTF-8"?>
<!DOCTYPE svg PUBLIC "-//W3C//DTD SVG 1.1//EN" "http://www.w3.org/Graphics/SVG/1.1/DTD/svg11.dtd">
<svg xmlns="http://www.w3.org/2000/svg" version="1.1" width="1440px" height="900px" style="shape-rendering:geometricPrecision; text-rendering:geometricPrecision; image-rendering:optimizeQuality; fill-rule:evenodd; clip-rule:evenodd" xmlns:xlink="http://www.w3.org/1999/xlink">
<g><path style="opacity:1" fill="#e92f3e" d="M 1439.5,893.5 C 1439.5,895.5 1439.5,897.5 1439.5,899.5C 997.167,899.5 554.833,899.5 112.5,899.5C 118.543,898.221 123.71,895.221 128,890.5C 132.64,877.942 136.973,865.276 141,852.5C 146.843,844.549 154.677,841.716 164.5,844C 169.525,845.689 173.359,848.856 176,853.5C 181,862.833 186,872.167 191,881.5C 202.893,892.347 214.226,891.68 225,879.5C 227.743,873.015 230.743,866.681 234,860.5C 244.717,849.462 256.884,847.629 270.5,855C 277.291,862.068 282.457,870.235 286,879.5C 291.743,885.599 298.577,887.099 306.5,884C 308.333,882.167 310.167,880.333 312,878.5C 314.084,871.408 316.417,864.408 319,857.5C 328.007,848.6 337.34,848.267 347,856.5C 349.611,864.898 354.111,872.064 360.5,878C 373.811,885.468 385.645,883.635 396,872.5C 405.141,854.847 419.641,847.68 439.5,851C 447.3,853.133 453.8,857.299 459,863.5C 463.333,872.164 468.833,879.997 475.5,887C 489.789,894.701 502.289,892.535 513,880.5C 517.992,870.515 524.158,861.348 531.5,853C 541.002,848.107 550.336,848.44 559.5,854C 562.057,856.892 564.224,860.059 566,863.5C 567.418,871.185 569.751,878.518 573,885.5C 582.667,894.833 592.333,894.833 602,885.5C 609.667,874.5 617.333,863.5 625,852.5C 638.857,837.328 654.69,834.828 672.5,845C 675,847.5 677.5,850 680,852.5C 685.375,861.417 690.875,870.251 696.5,879C 705.443,885.579 713.61,884.746 721,876.5C 726,867.5 731,858.5 736,849.5C 750.446,829.235 769.946,821.735 794.5,827C 804.517,829.755 813.017,834.921 820,842.5C 827.267,854.435 837.101,863.601 849.5,870C 866.412,875.95 882.079,873.617 896.5,863C 912.916,842.267 932.249,838.934 954.5,853C 957.021,855.22 959.188,857.72 961,860.5C 965.333,870.5 969.667,880.5 974,890.5C 983,899.833 992,899.833 1001,890.5C 1006.75,880.003 1012.75,869.67 1019,859.5C 1036.65,840.758 1056.15,838.591 1077.5,853C 1086.27,863.385 1094.44,874.219 1102,885.5C 1113.55,899.386 1127.38,902.22 1143.5,894C 1146.3,892.207 1148.8,890.04 1151,887.5C 1154.67,880.167 1158.33,872.833 1162,865.5C 1175.96,847.618 1194.13,841.118 1216.5,846C 1221.4,847.449 1226.07,849.449 1230.5,852C 1245.5,863.667 1260.5,875.333 1275.5,887C 1296.7,900.094 1315.87,897.594 1333,879.5C 1344.65,853.081 1363.49,845.914 1389.5,858C 1393.87,862.033 1397.87,866.366 1401.5,871C 1414.03,878.763 1426.7,886.263 1439.5,893.5 Z"/></g>
<g><path style="opacity:1" fill="#e92f3e" d="M 109.5,899.5 C 72.8333,899.5 36.1667,899.5 -0.5,899.5C -0.5,898.167 -0.5,896.833 -0.5,895.5C 8.80578,890.513 17.8058,885.013 26.5,879C 31.1667,872.333 35.8333,865.667 40.5,859C 55.5701,849.281 69.0701,851.114 81,864.5C 85.4911,874.151 90.4911,883.485 96,892.5C 99.9752,896.069 104.475,898.403 109.5,899.5 Z"/></g>
</svg>
